<?xml version="1.0" encoding="utf-8"?>
<!-- Generator: Adobe Illustrator 16.0.4, SVG Export Plug-In . SVG Version: 6.00 Build 0)  -->
<!DOCTYPE svg PUBLIC "-//W3C//DTD SVG 1.1//EN" "http://www.w3.org/Graphics/SVG/1.1/DTD/svg11.dtd">
<svg version="1.1" id="Layer_1" xmlns="http://www.w3.org/2000/svg" xmlns:xlink="http://www.w3.org/1999/xlink" x="0px" y="0px"
	 width="28.08px" height="28.08px" viewBox="-0.54 -0.079 28.08 28.08" enable-background="new -0.54 -0.079 28.08 28.08"
	 xml:space="preserve">
<filter  width="200%" height="200%" id="filter-1" filterUnits="objectBoundingBox" y="-50%" x="-50%">
	<feOffset  result="shadowOffsetOuter1" in="SourceAlpha" dy="2" dx="0"></feOffset>
	<feGaussianBlur  stdDeviation="2" result="shadowBlurOuter1" in="shadowOffsetOuter1"></feGaussianBlur>
	
		<feColorMatrix  type="matrix" values="0 0 0 0 0   0 0 0 0 0   0 0 0 0 0  0 0 0 0.05 0" result="shadowMatrixOuter1" in="shadowBlurOuter1">
		</feColorMatrix>
	<feMerge>
		<feMergeNode  in="shadowMatrixOuter1"></feMergeNode>
		<feMergeNode  in="SourceGraphic"></feMergeNode>
	</feMerge>
</filter>
<title>ic_home</title>
<desc>Created with Sketch.</desc>
<g id="OPt-2">
	<g id="prog2_pro3_Mobile-Portrait_opt2-Copy-2" transform="translate(-10.000000, -15.000000)">
		<g id="nav">
			<g id="Group-6" filter="url(#filter-1)">
				<g id="ic_home_1_" transform="translate(14.000000, 17.000000)">
					<g id="Group_1_" transform="translate(9.600000, 12.000000) scale(-1, 1) translate(-9.600000, -12.000000) ">
						<path id="Shape_5_" d="M1.641,6.823l0.895,0.691L3.975,8.63c0.193-0.969,0.754-1.802,1.531-2.344L2.735,4.14L3.593,3
							c0.352-0.466,0.264-1.132-0.197-1.487L1.307,4.284c-0.311,0.41-0.418,0.912-0.344,1.385C1.034,6.111,1.263,6.529,1.641,6.823
							L1.641,6.823z"/>
						<path id="Shape_4_" d="M10.428,16.512c-3.093-1.62-5.845-2.078-6.54-0.965c-0.57,0.914,0.4,2.646,2.301,4.422L4.386,22.9
							H3.157c-0.564,0.016-1.02,0.484-1.02,1.061h1.596h2.113L6.499,22.9l1.045-1.699l0.408-0.664
							c-0.145-0.238-0.229-0.52-0.229-0.82c0-0.871,0.697-1.576,1.556-1.576c0.049,0,0.095,0.004,0.142,0.008L10.428,16.512
							L10.428,16.512z"/>
						<path id="Shape_3_" d="M19.074,6.414c-0.161-0.788-0.85-1.38-1.675-1.38c-0.235,0-0.46,0.049-0.663,0.136
							c-0.615,0.263-1.047,0.879-1.047,1.599v8.224c0,0.586-0.469,1.061-1.047,1.061c-0.421,0-0.783-0.252-0.949-0.615
							c-0.016-0.032-0.028-0.065-0.04-0.1l-0.972-2.442l1.887-6.453c0.001-0.005,0.003-0.009,0.004-0.014
							c0.023-0.072,0.044-0.145,0.063-0.217c0.687-2.528-0.55-5.169-2.862-6.251L7.329,1.527C6.784,1.717,6.493,2.316,6.677,2.87
							l1.125-0.408c0.445-0.161,0.934,0.074,1.094,0.524c0.158,0.451-0.074,0.947-0.518,1.108L7.216,4.516
							c0.203,0.544,0.801,0.822,1.34,0.621l1.227-0.456c0.087,0.5-0.19,1.006-0.678,1.183l-2.35,0.866
							c-0.99,0.43-1.693,1.407-1.742,2.557C5.011,9.328,5.009,9.37,5.009,9.413c0,0.026,0.002,0.052,0.002,0.077
							c-0.004-0.012-0.008-0.02-0.008-0.02H1.337V8.037c0-0.4-0.488-0.749-0.799-0.93L0.29,6.976v3.514
							c0.014,0.988,0.807,1.786,1.785,1.786h4.137c0.365,0,0.723,0.044,1.062,0.127c-0.016-0.004-0.033-0.01-0.049-0.015
							c0.018,0.005,0.035,0.011,0.053,0.015c0.012,0.003,0.021,0.006,0.033,0.009c1.842,0.462,3.243,2.063,3.429,4.026
							c0.004,0.034,0.006,0.068,0.008,0.104c0.009,0.113,0.014,0.229,0.014,0.344c0,1.104-0.383,2.117-1.021,2.912
							c-0.047,0.059-0.096,0.115-0.145,0.172c-0.131,0.188-0.209,0.418-0.209,0.666c0,0.641,0.514,1.162,1.146,1.162
							c0.229,0,0.44-0.068,0.619-0.184l2.321-1.389c0.32,0.182,0.537,0.527,0.537,0.926c0,0.264-0.095,0.504-0.251,0.689
							L12.796,22.9h-1.175H11.62h-0.058c-0.564,0.016-1.018,0.484-1.018,1.061h2.094l0,0h1.264c0-1,0.8-1.811,1.787-1.811v-3.09
							c-0.819-0.166-1.437-0.898-1.437-1.777c0-0.043,0.003-0.088,0.006-0.131c0.104,0.016,0.21,0.027,0.319,0.027
							c0.407,0,0.786-0.117,1.111-0.314c0.626-0.383,1.047-1.078,1.047-1.873V6.769c0-0.384,0.306-0.694,0.684-0.694
							c0.365,0,0.662,0.29,0.683,0.654c-0.47,0.326-0.778,0.874-0.778,1.495c0,1,0.799,1.811,1.786,1.811V6.769
							C19.11,6.646,19.097,6.528,19.074,6.414L19.074,6.414z"/>
					</g>
				</g>
			</g>
		</g>
	</g>
</g>
</svg>
